<svg xmlns="http://www.w3.org/2000/svg" viewBox="0 0 64 64" width="64" height="64">
  <!-- Dark background -->
  <rect width="64" height="64" fill="#2a2a2a"/>
  
  <!-- Streaming signal arcs (top) -->
  <path d="M32 12 A16 16 0 0 1 48 20" 
        fill="none" 
        stroke="#f7d347" 
        stroke-width="3" 
        stroke-linecap="round"/>
        
  <path d="M32 8 A20 20 0 0 1 52 18" 
        fill="none" 
        stroke="#f7d347" 
        stroke-width="2.5" 
        stroke-linecap="round"/>
        
  <path d="M32 4 A24 24 0 0 1 56 16" 
        fill="none" 
        stroke="#f7d347" 
        stroke-width="2" 
        stroke-linecap="round"/>
  
  <!-- Main C letter -->
  <path d="M42 32 A10 10 0 0 0 32 22 A10 10 0 0 0 22 32 A10 10 0 0 0 32 42 A10 10 0 0 0 36 41.5" 
        fill="none" 
        stroke="#f7d347" 
        stroke-width="4" 
        stroke-linecap="round"/>
        
  <!-- Bottom streaming signal arcs -->
  <path d="M32 52 A16 16 0 0 0 48 44" 
        fill="none" 
        stroke="#f7d347" 
        stroke-width="3" 
        stroke-linecap="round"/>
        
  <path d="M32 56 A20 20 0 0 0 52 46" 
        fill="none" 
        stroke="#f7d347" 
        stroke-width="2.5" 
        stroke-linecap="round"/>
        
  <path d="M32 60 A24 24 0 0 0 56 48" 
        fill="none" 
        stroke="#f7d347" 
        stroke-width="2" 
        stroke-linecap="round"/>
</svg>