<svg xmlns="http://www.w3.org/2000/svg" viewBox="0 0 64 64" width="64" height="64">
  <!-- Black background -->
  <rect width="64" height="64" fill="#1a1a1a"/>
  
  <!-- Outer arc -->
  <path d="M32 8 A24 24 0 0 1 56 32 A24 24 0 0 1 32 56" 
        fill="none" 
        stroke="#FFD700" 
        stroke-width="4" 
        stroke-linecap="round"/>
  
  <!-- Middle arc -->
  <path d="M32 12 A20 20 0 0 1 52 32 A20 20 0 0 1 32 52" 
        fill="none" 
        stroke="#FFD700" 
        stroke-width="3" 
        stroke-linecap="round"/>
  
  <!-- Inner arc -->
  <path d="M32 16 A16 16 0 0 1 48 32 A16 16 0 0 1 32 48" 
        fill="none" 
        stroke="#FFD700" 
        stroke-width="2.5" 
        stroke-linecap="round"/>
  
  <!-- Center core -->
  <path d="M32 20 A12 12 0 0 1 44 32 A12 12 0 0 1 32 44" 
        fill="none" 
        stroke="#FFD700" 
        stroke-width="2" 
        stroke-linecap="round"/>
</svg> 